<svg width="20" height="20" viewBox="0 0 20 20" fill="none" xmlns="http://www.w3.org/2000/svg">
<path d="M10 19C7.7 19 5.69583 18.2375 3.9875 16.7125C2.27917 15.1875 1.3 13.2833 1.05 11H3.1C3.33333 12.7333 4.10417 14.1667 5.4125 15.3C6.72083 16.4333 8.25 17 10 17C11.95 17 13.6042 16.3208 14.9625 14.9625C16.3208 13.6042 17 11.95 17 10C17 8.05 16.3208 6.39583 14.9625 5.0375C13.6042 3.67917 11.95 3 10 3C8.85 3 7.775 3.26667 6.775 3.8C5.775 4.33333 4.93333 5.06667 4.25 6H7V8H1V2H3V4.35C3.85 3.28333 4.8875 2.45833 6.1125 1.875C7.3375 1.29167 8.63333 1 10 1C11.25 1 12.4208 1.2375 13.5125 1.7125C14.6042 2.1875 15.5542 2.82917 16.3625 3.6375C17.1708 4.44583 17.8125 5.39583 18.2875 6.4875C18.7625 7.57917 19 8.75 19 10C19 11.25 18.7625 12.4208 18.2875 13.5125C17.8125 14.6042 17.1708 15.5542 16.3625 16.3625C15.5542 17.1708 14.6042 17.8125 13.5125 18.2875C12.4208 18.7625 11.25 19 10 19V19M12.8 14.2L9 10.4V5H11V9.6L14.2 12.8L12.8 14.2V14.2" fill="#64748B"/>
</svg>
